<svg viewBox="0 0 512 512" xmlns="http://www.w3.org/2000/svg" xmlns:xlink="http://www.w3.org/1999/xlink"><linearGradient id="a" gradientTransform="matrix(1 0 0 -1 0 -12146)" gradientUnits="userSpaceOnUse" x1="0" x2="512" y1="-12402" y2="-12402"><stop offset="0" stop-color="#31d8ff"/><stop offset="1" stop-color="#ff80ff"/></linearGradient><path d="m512 256c0 141.386719-114.613281 256-256 256s-256-114.613281-256-256 114.613281-256 256-256 256 114.613281 256 256zm0 0" fill="url(#a)"/><g fill="#fff"><path d="m256 458c-5.144531 0-9.933594-2.636719-12.683594-6.988281l-28.535156-45.179688h-120.78125c-8.285156 0-15-6.714843-15-15v-271.832031c0-8.28125 6.714844-15 15-15h324c8.285156 0 15 6.71875 15 15v271.832031c0 8.285157-6.714844 15-15 15h-120.78125l-28.535156 45.179688c-2.75 4.351562-7.539063 6.988281-12.683594 6.988281zm-147-82.167969h114.050781c5.144531 0 9.933594 2.640625 12.683594 6.988281l20.265625 32.089844 20.265625-32.089844c2.75-4.351562 7.539063-6.988281 12.683594-6.988281h114.050781v-241.832031h-294zm0 0"/><path d="m273.160156 254.917969c0 9.476562-7.683594 17.160156-17.160156 17.160156s-17.160156-7.683594-17.160156-17.160156c0-9.480469 7.683594-17.160157 17.160156-17.160157s17.160156 7.679688 17.160156 17.160157zm0 0"/><path d="m204.515625 254.917969c0 9.476562-7.683594 17.160156-17.160156 17.160156-9.476563 0-17.160157-7.683594-17.160157-17.160156 0-9.480469 7.683594-17.160157 17.160157-17.160157 9.476562 0 17.160156 7.679688 17.160156 17.160157zm0 0"/><path d="m341.804688 254.917969c0 9.476562-7.683594 17.160156-17.160157 17.160156-9.476562 0-17.160156-7.683594-17.160156-17.160156 0-9.480469 7.683594-17.160157 17.160156-17.160157 9.476563 0 17.160157 7.679688 17.160157 17.160157zm0 0"/></g></svg>